<svg version="1.1" id="Layer_1" xmlns="http://www.w3.org/2000/svg" xmlns:xlink="http://www.w3.org/1999/xlink" x="0px" y="0px"
	 width="100%" height="100%" viewBox="0 0 100 115" enable-background="new 0 0 100 115" xml:space="preserve">
<path fill-rule="evenodd" clip-rule="evenodd" fill="#FAF7EB" d="M91.2,8.8c5.7,5.7,8.633,12.534,8.8,20.5V85h-0.05v25.75
	c-0.134,1.033-0.601,1.95-1.4,2.75c-0.967,0.967-2.116,1.467-3.45,1.5H77.85c-1.333-0.033-2.466-0.533-3.399-1.5
	c-0.834-0.8-1.316-1.717-1.45-2.75c-0.033-0.2-0.05-0.384-0.05-0.55V90h7V30.7c0-0.2,0-0.4,0-0.6c0-2.767-0.967-5.133-2.9-7.1
	c-1.967-1.933-4.35-2.9-7.149-2.9c-0.101,0-0.184,0-0.25,0c-1.733,0.033-3.317,0.467-4.75,1.3c-0.733,0.4-1.434,0.934-2.101,1.6
	c-1.934,1.967-2.899,4.333-2.899,7.1L59.85,90H67.9v20.15c-0.034,1.3-0.517,2.416-1.45,3.35c-0.934,0.967-2.066,1.467-3.4,1.5h-16.3
	c-1.333-0.033-2.467-0.533-3.4-1.5c-0.833-0.8-1.317-1.717-1.45-2.75c-0.033-0.233-0.05-0.45-0.05-0.65V90h8.1L49.9,30.1
	c0-2.767-0.983-5.133-2.95-7.1c-0.667-0.667-1.367-1.2-2.1-1.6c-1.5-0.867-3.167-1.3-5-1.3c-0.533,0-1.033,0.033-1.5,0.1
	c-2.133,0.3-4,1.233-5.6,2.8c-1.933,1.967-2.9,4.333-2.9,7.1c0,0.2,0,0.4,0,0.6V90h7v20.15c-0.033,1.3-0.517,2.416-1.45,3.35
	c-0.933,0.967-2.066,1.467-3.4,1.5H14.7c-0.934-0.033-1.75-0.283-2.45-0.75c-0.333-0.2-0.65-0.45-0.95-0.75
	c-0.833-0.8-1.316-1.717-1.45-2.75V85H9.8V32.1c-0.133-6-2.35-11.15-6.65-15.45c-1-1-2.05-1.883-3.15-2.65V0.1h7.2
	C8.033,0.033,8.9,0,9.8,0c5.567,0,10.617,1.317,15.15,3.95c4.433-2.567,9.4-3.85,14.9-3.85c5.6,0,10.617,1.3,15.05,3.9
	c4.433-2.6,9.433-3.9,15-3.9C78.233,0.1,85.333,3,91.2,8.8z"/>
</svg>
